<svg width="123" height="123" viewBox="0 0 123 123" fill="none" xmlns="http://www.w3.org/2000/svg">
<path d="M96.1282 72.5814C95.8547 72.5816 95.5842 72.5234 95.335 72.4108C95.0858 72.2981 94.8635 72.1335 94.6829 71.928C92.6987 69.6682 90.2553 67.8576 87.5159 66.6168C84.7765 65.376 81.804 64.7336 78.7967 64.7325C74.2995 64.7325 69.8292 66.2085 66.2161 68.8876C66.0135 69.0378 65.7832 69.1465 65.5385 69.2077C65.2938 69.2689 65.0394 69.2813 64.7899 69.2442C64.5405 69.207 64.3007 69.1211 64.0844 68.9914C63.8681 68.8616 63.6795 68.6905 63.5293 68.4878C63.3792 68.2852 63.2704 68.0549 63.2092 67.8102C63.148 67.5655 63.1356 67.3111 63.1728 67.0616C63.2099 66.8122 63.2958 66.5724 63.4256 66.3561C63.5553 66.1398 63.7264 65.9512 63.9291 65.801C68.2381 62.6251 73.4476 60.9056 78.8006 60.8926C85.9884 60.8926 92.8302 63.9906 97.5773 69.3911C97.8198 69.6696 97.9771 70.012 98.0305 70.3774C98.0838 70.7428 98.031 71.1159 97.8783 71.4521C97.7256 71.7883 97.4794 72.0736 97.1691 72.2738C96.8588 72.474 96.4975 72.5808 96.1282 72.5814Z" fill="#F04C4D"/>
<path d="M51.4949 55.5847C51.1693 55.5847 50.849 55.502 50.5642 55.3443C50.2793 55.1867 50.0392 54.9593 49.8663 54.6834C49.6934 54.4075 49.5934 54.0923 49.5757 53.7672C49.558 53.4421 49.6232 53.1178 49.7652 52.8248C51.1606 49.9482 51.8873 46.7932 51.8908 43.596C51.8908 39.8906 50.9106 36.2314 49.0618 33.0257C48.9336 32.807 48.8499 32.5652 48.8156 32.3141C48.7812 32.0629 48.7969 31.8075 48.8617 31.5625C48.9265 31.3174 49.0391 31.0876 49.193 30.8863C49.347 30.685 49.5393 30.5161 49.7588 30.3893C49.9783 30.2626 50.2207 30.1805 50.472 30.1479C50.7234 30.1152 50.9787 30.1326 51.2233 30.199C51.4679 30.2654 51.6969 30.3795 51.8972 30.5348C52.0976 30.6901 52.2652 30.8835 52.3904 31.1038C54.4292 34.6397 55.5717 38.6207 55.7185 42.6996C55.8652 46.7785 55.0116 50.8313 53.2322 54.5046C53.0726 54.8291 52.8252 55.1023 52.5181 55.2932C52.211 55.4841 51.8565 55.5851 51.4949 55.5847Z" fill="#499ED7"/>
<path d="M18.5191 99.3575L43.1383 52.3599C43.4181 51.8258 43.8196 51.365 44.3104 51.0148C44.8012 50.6646 45.3675 50.4347 45.9635 50.3438C46.5596 50.2528 47.1687 50.3034 47.7416 50.4914C48.3145 50.6794 48.8351 50.9995 49.2614 51.4259L69.0452 71.2097C69.4716 71.636 69.7917 72.1566 69.9797 72.7295C70.1677 73.3024 70.2182 73.9115 70.1273 74.5075C70.0364 75.1036 69.8065 75.6699 69.4563 76.1607C69.106 76.6515 68.6452 77.053 68.1111 77.3328L21.1136 101.952C20.7508 102.142 20.3366 102.212 19.9316 102.15C19.5266 102.088 19.1519 101.899 18.8622 101.609C18.5725 101.319 18.383 100.944 18.3213 100.539C18.2595 100.134 18.3288 99.7203 18.5191 99.3575Z" fill="#FFCC5C"/>
<path d="M69.0452 71.2097L49.2615 51.4259C48.8351 50.9995 48.3145 50.6794 47.7416 50.4914C47.1687 50.3034 46.5596 50.2528 45.9636 50.3438C45.3675 50.4347 44.8012 50.6646 44.3104 51.0148C43.8197 51.365 43.4181 51.8258 43.1384 52.3599L42.9231 52.7751L50.1225 59.9744C51.4016 61.2533 52.362 62.8152 52.926 64.5339C53.4899 66.2526 53.6416 68.0798 53.3689 69.868C53.0961 71.6561 52.4065 73.355 51.3558 74.8274C50.305 76.2998 48.9227 77.5043 47.3204 78.3437L22.8049 91.1856L18.523 99.3575C18.3327 99.7203 18.2634 100.134 18.3252 100.539C18.3869 100.944 18.5764 101.319 18.8661 101.609C19.1558 101.899 19.5305 102.088 19.9355 102.15C20.3405 102.212 20.7547 102.142 21.1175 101.952L68.115 77.3328C68.6489 77.0526 69.1093 76.6508 69.4592 76.1599C69.809 75.6689 70.0385 75.1026 70.1291 74.5065C70.2196 73.9105 70.1687 73.3015 69.9804 72.7288C69.7921 72.1561 69.4718 71.6357 69.0452 71.2097Z" fill="#F7B546"/>
<path d="M30.4812 97.0428L35.2974 94.5213L23.055 90.6968L21.2446 94.1562L30.4812 97.0428ZM26.0608 84.9581L43.2808 90.3393L48.0971 87.8178L27.8751 81.4987L26.0608 84.9581ZM30.8771 75.76L56.0767 83.6358L60.8929 81.1143L32.6913 72.3006L30.8771 75.76ZM35.6971 66.5657L68.6496 76.8631C69.1852 76.4464 69.5973 75.8917 69.8417 75.2586C70.0862 74.6255 70.1537 73.9378 70.0372 73.2692L37.5114 63.1064L35.6971 66.5657ZM40.5133 57.3715L61.8846 64.0481L56.0267 58.194L42.3238 53.9121L40.5133 57.3715Z" fill="#F47423"/>
<path d="M70.0333 73.2694L53.436 68.0841C53.4399 69.391 53.24 70.6825 52.8133 71.9163L68.6496 76.8633C69.1877 76.4328 69.5721 75.8946 69.8143 75.3065L69.8681 75.172C70.0845 74.5623 70.1414 73.9073 70.0333 73.2694ZM48.0971 87.8179L36.2775 84.1241L31.4613 86.6456L43.2808 90.3394L44.4032 89.7514L48.0971 87.8179ZM50.1189 59.9738C50.2842 60.1391 50.3841 60.3313 50.534 60.5043L61.8808 64.052L56.0229 58.1942L44.8414 54.7002L50.1189 59.9738ZM21.2446 94.1563L30.4812 97.0429L35.2974 94.5214L23.4778 90.8276L22.8013 91.1851L21.2446 94.1563ZM47.3168 78.3431L44.261 79.9459L56.0805 83.6398L60.8968 81.1183L48.7889 77.336C48.3085 77.682 47.8588 78.0587 47.3168 78.3431Z" fill="#ED5D25"/>
<path d="M30.75 49.3613C29.6388 49.3573 28.5524 49.0326 27.6211 48.4263C26.6898 47.82 25.9534 46.9578 25.5 45.9432C25.0467 44.9286 24.8959 43.8048 25.0655 42.7065C25.2352 41.6083 25.7182 40.5824 26.4566 39.752C25.5063 38.6972 24.9805 37.3279 24.9805 35.9082C24.9805 34.4885 25.5063 33.1192 26.4566 32.0645C25.7182 31.234 25.2352 30.2081 25.0655 29.1099C24.8959 28.0116 25.0467 26.8878 25.5 25.8732C25.9534 24.8586 26.6898 23.9965 27.6211 23.3901C28.5524 22.7838 29.6388 22.4591 30.75 22.4551C31.2598 22.4551 31.7486 22.6576 32.109 23.018C32.4694 23.3784 32.6719 23.8672 32.6719 24.377C32.6719 24.8867 32.4694 25.3755 32.109 25.7359C31.7486 26.0963 31.2598 26.2988 30.75 26.2988C30.2403 26.2988 29.7515 26.5013 29.3911 26.8617C29.0307 27.2222 28.8282 27.711 28.8282 28.2207C28.8282 28.7304 29.0307 29.2193 29.3911 29.5797C29.7515 29.9401 30.2403 30.1426 30.75 30.1426C31.2598 30.1426 31.7486 30.3451 32.109 30.7055C32.4694 31.0659 32.6719 31.5547 32.6719 32.0645C32.6719 32.5742 32.4694 33.063 32.109 33.4234C31.7486 33.7838 31.2598 33.9863 30.75 33.9863C30.2403 33.9863 29.7515 34.1888 29.3911 34.5492C29.0307 34.9097 28.8282 35.3985 28.8282 35.9082C28.8282 36.4179 29.0307 36.9068 29.3911 37.2672C29.7515 37.6276 30.2403 37.8301 30.75 37.8301C31.2598 37.8301 31.7486 38.0326 32.109 38.393C32.4694 38.7534 32.6719 39.2422 32.6719 39.752C32.6719 40.2617 32.4694 40.7505 32.109 41.1109C31.7486 41.4713 31.2598 41.6738 30.75 41.6738C30.2403 41.6738 29.7515 41.8763 29.3911 42.2367C29.0307 42.5972 28.8282 43.086 28.8282 43.5957C28.8282 44.1054 29.0307 44.5943 29.3911 44.9547C29.7515 45.3151 30.2403 45.5176 30.75 45.5176C31.2598 45.5176 31.7486 45.7201 32.109 46.0805C32.4694 46.4409 32.6719 46.9297 32.6719 47.4395C32.6719 47.9492 32.4694 48.438 32.109 48.7984C31.7486 49.1588 31.2598 49.3613 30.75 49.3613Z" fill="#92CA62"/>
<path d="M30.8768 33.9598C31.2478 33.9365 31.6039 33.8045 31.9005 33.5803C32.1971 33.3561 32.4212 33.0497 32.5449 32.699C32.1743 32.7238 31.819 32.8563 31.5226 33.0803C31.2262 33.3043 31.0018 33.61 30.8768 33.9598ZM32.5449 25.0115C32.1743 25.0363 31.819 25.1688 31.5226 25.3928C31.2262 25.6168 31.0018 25.9225 30.8768 26.2723C31.2478 26.249 31.6039 26.117 31.9005 25.8928C32.1971 25.6686 32.4212 25.3622 32.5449 25.0115ZM26.9062 42.2815C26.9062 40.8055 27.4635 39.4602 28.3783 38.4377C27.4281 37.383 26.9022 36.0137 26.9022 34.594C26.9022 33.1743 27.4281 31.805 28.3783 30.7502C27.4033 29.6652 26.8778 28.2497 26.9085 26.7912C26.9391 25.3327 27.5238 23.9406 28.5436 22.8975C27.6942 23.2512 26.9416 23.8029 26.3488 24.5066C25.756 25.2104 25.3401 26.0457 25.1359 26.9429C24.9316 27.8401 24.9449 28.7731 25.1746 29.6641C25.4043 30.5551 25.8438 31.3782 26.4564 32.0648C25.5054 33.1192 24.979 34.4886 24.979 35.9086C24.979 37.3285 25.5054 38.698 26.4564 39.7523C25.7181 40.5828 25.2351 41.6087 25.0654 42.7069C24.8957 43.8051 25.0466 44.929 25.4999 45.9435C25.9532 46.9581 26.6897 47.8203 27.621 48.4266C28.5522 49.0329 29.6387 49.3576 30.7499 49.3617C31.152 49.3595 31.543 49.2299 31.8669 48.9917C32.1907 48.7535 32.4308 48.4187 32.5526 48.0356C31.0462 48.0044 29.6119 47.3849 28.5566 46.3094C27.5013 45.234 26.9089 43.7882 26.9062 42.2815Z" fill="#71BC58"/>
<path d="M30.877 41.6475C31.2474 41.6234 31.6025 41.4911 31.8984 41.267C32.1943 41.0429 32.4178 40.7368 32.5413 40.3867C32.1712 40.4117 31.8164 40.5444 31.5207 40.7684C31.225 40.9924 31.0013 41.298 30.877 41.6475Z" fill="#71BC58"/>
<path d="M83.5325 53.4323C82.0565 53.4323 80.5805 52.8711 79.4543 51.7487C79.0934 51.3884 78.8905 50.8994 78.8901 50.3894C78.8898 49.8794 79.092 49.3901 79.4524 49.0293C79.8128 48.6684 80.3017 48.4655 80.8117 48.4651C81.3217 48.4647 81.811 48.667 82.1718 49.0273C82.3505 49.2058 82.5626 49.3473 82.796 49.4437C83.0294 49.5402 83.2794 49.5898 83.532 49.5896C83.7845 49.5894 84.0345 49.5395 84.2677 49.4427C84.501 49.3459 84.7129 49.2041 84.8913 49.0254C85.0697 48.8467 85.2112 48.6347 85.3077 48.4013C85.4042 48.1679 85.4537 47.9178 85.4536 47.6653C85.4534 47.4128 85.4035 47.1628 85.3067 46.9295C85.2099 46.6963 85.0681 46.4844 84.8894 46.306C84.7095 46.128 84.5667 45.9161 84.4692 45.6825C84.3717 45.4489 84.3215 45.1984 84.3215 44.9453C84.3215 44.6922 84.3717 44.4416 84.4692 44.2081C84.5667 43.9745 84.7095 43.7626 84.8894 43.5846C85.2498 43.2243 85.7385 43.0219 86.2481 43.0219C86.7578 43.0219 87.2465 43.2243 87.6069 43.5846C87.9694 43.9347 88.4548 44.1284 88.9588 44.124C89.4627 44.1196 89.9447 43.9175 90.301 43.5612C90.6574 43.2049 90.8595 42.7228 90.8639 42.2189C90.8682 41.715 90.6745 41.2295 90.3244 40.8671C90.1445 40.6891 90.0017 40.4771 89.9043 40.2436C89.8068 40.01 89.7566 39.7595 89.7566 39.5064C89.7566 39.2533 89.8068 39.0027 89.9043 38.7692C90.0017 38.5356 90.1445 38.3237 90.3244 38.1457C90.6848 37.7854 91.1736 37.583 91.6832 37.583C92.1928 37.583 92.6816 37.7854 93.042 38.1457C93.4089 38.4934 93.8952 38.6871 94.4007 38.6871C94.9062 38.6871 95.3925 38.4934 95.7595 38.1457C95.9387 37.9675 96.0807 37.7554 96.177 37.5218C96.2734 37.2882 96.3222 37.0377 96.3207 36.785C96.3217 36.5329 96.2726 36.2832 96.1763 36.0503C96.0799 35.8173 95.9383 35.6059 95.7595 35.4282C95.5808 35.2497 95.439 35.0378 95.3422 34.8046C95.2454 34.5714 95.1955 34.3214 95.1953 34.0688C95.1951 33.8163 95.2447 33.5662 95.3412 33.3329C95.4377 33.0995 95.5791 32.8874 95.7576 32.7087C95.936 32.53 96.1479 32.3882 96.3811 32.2914C96.6144 32.1946 96.8644 32.1447 97.1169 32.1445C97.3694 32.1444 97.6195 32.1939 97.8529 32.2904C98.0863 32.3869 98.2984 32.5283 98.477 32.7068C99.5648 33.7946 100.164 35.2437 100.164 36.785C100.166 38.2594 99.6016 39.6781 98.5885 40.7492C97.5753 41.8203 96.19 42.4623 94.7178 42.5429C94.6429 43.9611 94.0459 45.3014 93.0416 46.3056C92.0374 47.3099 90.6971 47.9069 89.2789 47.9818C89.2021 49.3502 88.6447 50.6994 87.5992 51.741C86.4884 52.8711 85.0085 53.4323 83.5325 53.4323Z" fill="#AE89BE"/>
<path d="M85.5232 43.5956C85.8372 43.9036 86.2483 44.0931 86.6865 44.1317C87.1246 44.1702 87.5626 44.0555 87.9255 43.807C87.8218 43.7378 87.7026 43.6917 87.6104 43.5956C87.2964 43.2876 86.8852 43.0981 86.4471 43.0596C86.0089 43.021 85.571 43.1358 85.208 43.3842C85.3118 43.4534 85.431 43.5034 85.5232 43.5956ZM90.9583 38.1606C91.2774 38.4597 91.6881 38.6426 92.1241 38.6796C92.56 38.7165 92.9956 38.6054 93.3606 38.3643C93.253 38.2951 93.1377 38.2528 93.0454 38.1606C92.7314 37.8525 92.3203 37.6631 91.8821 37.6245C91.444 37.5859 91.006 37.7007 90.6431 37.9491C90.7469 38.0183 90.866 38.0683 90.9583 38.1606ZM80.0881 49.0307C80.4021 49.3387 80.8133 49.5282 81.2514 49.5667C81.6896 49.6053 82.1275 49.4905 82.4905 49.2421C82.3867 49.1729 82.2675 49.1268 82.1753 49.0307C81.8605 48.7239 81.4491 48.5356 81.0112 48.4977C80.5733 48.4599 80.1357 48.5749 79.7729 48.8231C79.8767 48.8923 79.9959 48.9384 80.0881 49.0307Z" fill="#9676B5"/>
<path d="M98.4806 32.7216C98.1658 32.4149 97.7544 32.2265 97.3165 32.1887C96.8786 32.1509 96.441 32.2658 96.0783 32.5141C96.182 32.5833 96.3012 32.6294 96.3934 32.7216C97.4812 33.8094 98.0808 35.2585 98.0808 36.7999C98.0821 38.2742 97.518 39.693 96.5049 40.7641C95.4917 41.8352 94.1064 42.4771 92.6343 42.5578C92.5593 43.976 91.9623 45.3163 90.9581 46.3205C89.9538 47.3247 88.6135 47.9218 87.1953 47.9967C87.1185 49.3651 86.5611 50.7142 85.5156 51.7559C84.6623 52.6092 83.5899 53.032 82.4829 53.2357C82.8327 53.3011 83.1709 53.4394 83.5246 53.4394C84.9989 53.4426 86.4181 52.8797 87.4895 51.867C88.5609 50.8542 89.2027 49.4688 89.2825 47.9967C90.7001 47.9201 92.0395 47.3225 93.0433 46.3186C94.0472 45.3148 94.6448 43.9754 94.7214 42.5578C96.1939 42.4781 97.5797 41.8364 98.5931 40.7651C99.6064 39.6938 100.17 38.2745 100.168 36.7999C100.171 36.0422 100.024 35.2914 99.7338 34.5913C99.4441 33.8912 99.0181 33.2556 98.4806 32.7216Z" fill="#9676B5"/>
<path d="M62.1725 99.1761C61.8389 99.176 61.5112 99.0892 61.2214 98.9241C60.9316 98.759 60.6897 98.5213 60.5197 98.2344C59.9482 97.2775 59.6667 96.1753 59.7093 95.0616C59.7519 93.9479 60.1169 92.8705 60.7599 91.9601C61.4029 91.0497 62.2963 90.3455 63.3317 89.933C64.367 89.5204 65.4999 89.4172 66.5928 89.6359C67.0041 88.329 67.8804 87.1605 69.1489 86.411C70.4135 85.6576 71.8433 85.4501 73.204 85.7153C73.6268 84.3584 74.5263 83.2207 75.7601 82.4904C76.4105 82.101 77.1319 81.845 77.8823 81.7375C78.6326 81.6299 79.3969 81.6729 80.1305 81.8638C81.6218 82.2444 82.8787 83.1861 83.6629 84.5083C83.7916 84.7259 83.8762 84.9667 83.9119 85.2169C83.9475 85.4672 83.9335 85.722 83.8707 85.9669C83.8079 86.2117 83.6975 86.4418 83.5457 86.644C83.394 86.8461 83.2039 87.0164 82.9864 87.1452C82.7688 87.2739 82.528 87.3585 82.2778 87.3941C82.0275 87.4298 81.7727 87.4158 81.5279 87.353C81.283 87.2902 81.0529 87.1798 80.8507 87.028C80.6486 86.8763 80.4783 86.6862 80.3496 86.4687C80.1576 86.139 79.8715 85.8743 79.528 85.7084C79.1846 85.5425 78.7994 85.483 78.4218 85.5375C78.0443 85.592 77.6917 85.7581 77.4092 86.0144C77.1267 86.2707 76.9272 86.6056 76.8364 86.976C76.7736 87.2201 76.76 87.4743 76.7963 87.7237C76.8326 87.9731 76.9181 88.2129 77.0478 88.429C77.2584 88.864 77.2981 89.3622 77.1591 89.8251C77.02 90.288 76.7123 90.6819 76.2968 90.9288C75.8812 91.1757 75.3882 91.2576 74.9151 91.1584C74.4421 91.0592 74.0235 90.7861 73.7421 90.3931C73.4807 89.9554 73.0566 89.6389 72.5625 89.5128C72.0684 89.3868 71.5445 89.4614 71.1053 89.7205C70.6676 89.9819 70.3511 90.406 70.225 90.9001C70.099 91.3942 70.1736 91.9181 70.4327 92.3573C70.6926 92.7967 70.7674 93.3213 70.6405 93.8158C70.5137 94.3103 70.1956 94.7341 69.7562 94.9941C69.3168 95.254 68.7922 95.3288 68.2977 95.2019C67.8032 95.0751 67.3793 94.757 67.1194 94.3176C66.9923 94.0996 66.8227 93.9093 66.6206 93.7581C66.4186 93.6069 66.1882 93.4978 65.9432 93.4374C65.5754 93.3445 65.1883 93.3625 64.8307 93.4892C64.4731 93.6159 64.161 93.8455 63.9337 94.1493C63.7065 94.453 63.5741 94.8172 63.5535 95.196C63.5328 95.5748 63.6247 95.9512 63.8176 96.2779C63.9906 96.5688 64.0835 96.9004 64.0869 97.2388C64.0903 97.5772 64.004 97.9106 63.8369 98.2049C63.6699 98.4993 63.4279 98.7441 63.1355 98.9147C62.8432 99.0853 62.5109 99.1755 62.1725 99.1761Z" fill="#499ED7"/>
<path d="M62.6917 98.2382C62.3039 97.5873 62.0483 96.8663 61.9397 96.1166C61.831 95.3668 61.8714 94.6029 62.0585 93.8687C62.2456 93.1346 62.5758 92.4446 63.03 91.8383C63.4843 91.2319 64.0538 90.7212 64.7058 90.3354C65.2901 89.9856 65.9281 89.7627 66.5816 89.6397C65.1929 89.3584 63.7492 89.6066 62.5341 90.3354C61.8816 90.7201 61.3119 91.2304 60.858 91.8367C60.4041 92.443 60.0749 93.1334 59.8896 93.8678C59.7002 94.6018 59.6585 95.366 59.7667 96.1162C59.8749 96.8664 60.1309 97.5877 60.52 98.2382C60.7814 98.6749 61.2048 98.9906 61.698 99.1166C62.1911 99.2426 62.7141 99.1686 63.1529 98.9108C63.2029 98.8839 63.226 98.8339 63.2721 98.8032C63.0418 98.6568 62.8442 98.4644 62.6917 98.2382ZM69.2991 94.3137C69.172 94.0957 69.0024 93.9054 68.8004 93.7542C68.5983 93.603 68.3679 93.4939 68.1229 93.4335C67.8782 93.37 67.6234 93.356 67.3732 93.3923C67.123 93.4286 66.8827 93.5145 66.6661 93.6449C66.6277 93.6679 66.6046 93.7064 66.57 93.7294C66.7891 93.8832 66.9852 94.0754 67.1235 94.3137C67.3843 94.7523 67.8084 95.0694 68.3028 95.1955C68.7972 95.3216 69.3214 95.2464 69.7603 94.9864C69.7988 94.9633 69.8103 94.921 69.8488 94.8979C69.6263 94.7443 69.4389 94.5452 69.2991 94.3137ZM68.7687 89.6397C69.1799 88.3328 70.0563 87.1643 71.3248 86.4148C72.5893 85.6614 74.0192 85.4539 75.3799 85.7191C75.6878 84.7297 76.2595 83.843 77.0336 83.1542C77.8077 82.4655 78.7549 82.0007 79.7733 81.81C78.3892 81.5331 76.9516 81.7796 75.7388 82.5017C74.526 83.2239 73.6243 84.3703 73.2082 85.7191C71.817 85.4381 70.371 85.6861 69.153 86.4148C67.8846 87.1682 67.0121 88.329 66.6008 89.6359C67.308 89.5013 68.0384 89.4898 68.7687 89.6397ZM75.918 90.3931C75.6566 89.9553 75.2325 89.6388 74.7384 89.5128C74.2443 89.3867 73.7204 89.4614 73.2812 89.7204C73.2428 89.7435 73.2197 89.7819 73.1851 89.8088C73.4042 89.9626 73.5964 90.1509 73.7425 90.3969C74.0031 90.8346 74.4268 91.1508 74.9205 91.2762C75.4142 91.4017 75.9375 91.3259 76.3754 91.0657C76.4139 91.0427 76.4254 91.0004 76.46 90.9773C76.2407 90.8224 76.0561 90.6234 75.918 90.3931ZM82.5254 86.4724C82.3971 86.255 82.227 86.0651 82.025 85.9136C81.8229 85.7622 81.5929 85.6522 81.3482 85.59C81.1034 85.5279 80.8488 85.5147 80.599 85.5514C80.3491 85.588 80.109 85.6738 79.8925 85.8036C79.854 85.8267 79.831 85.8651 79.7964 85.8882C80.0155 86.0419 80.2115 86.2341 80.3499 86.4724C80.6106 86.911 81.0347 87.2282 81.5291 87.3543C82.0235 87.4804 82.5477 87.4052 82.9867 87.1451C83.0251 87.122 83.0443 87.0836 83.0828 87.0605C82.8569 86.9069 82.6667 86.7063 82.5254 86.4724Z" fill="#2B8EC6"/>
<path d="M57.6562 24.377C59.7791 24.377 61.5 22.656 61.5 20.5332C61.5 18.4104 59.7791 16.6895 57.6562 16.6895C55.5334 16.6895 53.8125 18.4104 53.8125 20.5332C53.8125 22.656 55.5334 24.377 57.6562 24.377Z" fill="#AE89BE"/>
<path d="M88.4062 24.377C90.5291 24.377 92.25 22.656 92.25 20.5332C92.25 18.4104 90.5291 16.6895 88.4062 16.6895C86.2834 16.6895 84.5625 18.4104 84.5625 20.5332C84.5625 22.656 86.2834 24.377 88.4062 24.377Z" fill="#499ED7"/>
<path d="M103.781 62.8144C105.904 62.8144 107.625 61.0935 107.625 58.9707C107.625 56.8479 105.904 55.127 103.781 55.127C101.658 55.127 99.9375 56.8479 99.9375 58.9707C99.9375 61.0935 101.658 62.8144 103.781 62.8144Z" fill="#FFCC5C"/>
<path d="M15.375 78.1895C17.4978 78.1895 19.2188 76.4685 19.2188 74.3457C19.2188 72.2229 17.4978 70.502 15.375 70.502C13.2522 70.502 11.5312 72.2229 11.5312 74.3457C11.5312 76.4685 13.2522 78.1895 15.375 78.1895Z" fill="#F04C4D"/>
<path d="M57.6562 16.6895C57.1614 16.6928 56.6719 16.792 56.2148 16.9816C56.9219 17.2681 57.5274 17.7592 57.9537 18.392C58.3799 19.0247 58.6077 19.7703 58.6077 20.5332C58.6077 21.2961 58.3799 22.0417 57.9537 22.6744C57.5274 23.3072 56.9219 23.7983 56.2148 24.0848C56.6719 24.2744 57.1614 24.3736 57.6562 24.377C58.6757 24.377 59.6533 23.972 60.3742 23.2511C61.095 22.5303 61.5 21.5526 61.5 20.5332C61.5 19.5138 61.095 18.5361 60.3742 17.8153C59.6533 17.0944 58.6757 16.6895 57.6562 16.6895Z" fill="#9676B5"/>
<path d="M88.4062 16.6895C87.9114 16.6928 87.4219 16.792 86.9648 16.9816C87.6719 17.2681 88.2774 17.7592 88.7037 18.392C89.1299 19.0247 89.3577 19.7703 89.3577 20.5332C89.3577 21.2961 89.1299 22.0417 88.7037 22.6744C88.2774 23.3072 87.6719 23.7983 86.9648 24.0848C87.4219 24.2744 87.9114 24.3736 88.4062 24.377C89.4257 24.377 90.4034 23.972 91.1242 23.2511C91.845 22.5303 92.25 21.5526 92.25 20.5332C92.25 19.5138 91.845 18.5361 91.1242 17.8153C90.4034 17.0944 89.4257 16.6895 88.4062 16.6895Z" fill="#2B8EC6"/>
<path d="M103.781 55.127C103.286 55.1303 102.797 55.2295 102.34 55.4191C103.047 55.7056 103.652 56.1967 104.079 56.8295C104.505 57.4622 104.733 58.2078 104.733 58.9707C104.733 59.7336 104.505 60.4792 104.079 61.1119C103.652 61.7447 103.047 62.2358 102.34 62.5223C102.797 62.7119 103.286 62.8111 103.781 62.8144C104.801 62.8144 105.778 62.4095 106.499 61.6886C107.22 60.9678 107.625 59.9901 107.625 58.9707C107.625 57.9513 107.22 56.9736 106.499 56.2528C105.778 55.5319 104.801 55.127 103.781 55.127Z" fill="#F7B546"/>
<path d="M15.375 70.502C14.8802 70.5053 14.3907 70.6045 13.9336 70.7941C14.6407 71.0806 15.2461 71.5717 15.6724 72.2045C16.0987 72.8372 16.3264 73.5828 16.3264 74.3457C16.3264 75.1086 16.0987 75.8542 15.6724 76.4869C15.2461 77.1197 14.6407 77.6108 13.9336 77.8973C14.3907 78.087 14.8802 78.1861 15.375 78.1895C16.3944 78.1895 17.3721 77.7845 18.0929 77.0636C18.8138 76.3428 19.2188 75.3651 19.2188 74.3457C19.2188 73.3263 18.8138 72.3486 18.0929 71.6278C17.3721 70.9069 16.3944 70.502 15.375 70.502Z" fill="#E13340"/>
<path d="M92.25 101.252C94.3728 101.252 96.0938 99.531 96.0938 97.4082C96.0938 95.2854 94.3728 93.5645 92.25 93.5645C90.1272 93.5645 88.4062 95.2854 88.4062 97.4082C88.4062 99.531 90.1272 101.252 92.25 101.252Z" fill="#F04C4D"/>
<path d="M92.25 93.5645C91.7552 93.5678 91.2657 93.667 90.8086 93.8566C91.5157 94.1431 92.1211 94.6342 92.5474 95.267C92.9737 95.8997 93.2014 96.6453 93.2014 97.4082C93.2014 98.1711 92.9737 98.9167 92.5474 99.5494C92.1211 100.182 91.5157 100.673 90.8086 100.96C91.2657 101.149 91.7552 101.249 92.25 101.252C93.2694 101.252 94.2471 100.847 94.9679 100.126C95.6888 99.4053 96.0938 98.4276 96.0938 97.4082C96.0938 96.3888 95.6888 95.4111 94.9679 94.6903C94.2471 93.9694 93.2694 93.5645 92.25 93.5645Z" fill="#E13340"/>
<path d="M101.555 84.1012C101.099 84.1005 100.657 83.9373 100.31 83.6408C99.963 83.3443 99.7327 82.9338 99.6605 82.4829C99.461 81.2316 99.1458 80.0014 98.7188 78.8083C98.5496 78.3271 98.5784 77.7985 98.799 77.3386C99.0196 76.8787 99.4138 76.5252 99.895 76.356C100.376 76.1868 100.905 76.2156 101.365 76.4362C101.825 76.6568 102.178 77.051 102.347 77.5322C102.843 78.9449 103.215 80.3983 103.458 81.8756C103.501 82.1505 103.485 82.4315 103.409 82.6993C103.333 82.9671 103.2 83.2153 103.02 83.4268C102.839 83.6383 102.614 83.8081 102.362 83.9246C102.109 84.041 101.834 84.1012 101.555 84.1012Z" fill="#F04C4D"/>
<path d="M46.1866 28.378C45.7143 28.3787 45.2585 28.2048 44.9066 27.8898C44.3807 27.421 43.833 26.9772 43.2654 26.5599C42.871 26.2515 42.6125 25.8014 42.5449 25.3054C42.4774 24.8094 42.606 24.3065 42.9035 23.9039C43.2009 23.5012 43.6438 23.2306 44.1378 23.1494C44.6318 23.0683 45.1379 23.1831 45.5485 23.4695C46.2119 23.9594 46.852 24.4802 47.4666 25.03C47.7542 25.29 47.9566 25.6308 48.047 26.0078C48.1375 26.3848 48.1118 26.7803 47.9733 27.1424C47.8349 27.5045 47.5901 27.8163 47.2713 28.0368C46.9524 28.2573 46.5743 28.3763 46.1866 28.378Z" fill="#499ED7"/>
<path d="M64.5521 57.1109C64.1755 57.1117 63.807 57.0019 63.4923 56.7951C63.1776 56.5883 62.9306 56.2936 62.782 55.9476C62.6334 55.6016 62.5897 55.2196 62.6563 54.849C62.7229 54.4784 62.897 54.1355 63.1568 53.8629C68.272 48.51 71.1201 41.387 71.1057 33.9831C71.1057 29.6281 70.0948 25.2577 68.1883 21.3487C68.065 21.1207 67.9891 20.8701 67.9652 20.6121C67.9412 20.354 67.9697 20.0938 68.049 19.8471C68.1282 19.6003 68.2565 19.3721 68.4262 19.1763C68.5958 18.9804 68.8034 18.8208 69.0363 18.7072C69.2692 18.5936 69.5227 18.5283 69.7816 18.5152C70.0404 18.502 70.2992 18.5414 70.5424 18.6309C70.7856 18.7204 71.0082 18.8581 71.1968 19.0358C71.3855 19.2136 71.5362 19.4276 71.6399 19.6651C73.8106 24.1277 74.9408 29.0244 74.9456 33.9869C74.9612 42.3775 71.733 50.4493 65.9358 56.5151C65.7586 56.7043 65.5442 56.8549 65.3061 56.9574C65.068 57.0599 64.8113 57.1122 64.5521 57.1109Z" fill="#92CA62"/>
<path d="M30.75 57.0488C31.8114 57.0488 32.6719 56.1884 32.6719 55.127C32.6719 54.0655 31.8114 53.2051 30.75 53.2051C29.6886 53.2051 28.8281 54.0655 28.8281 55.127C28.8281 56.1884 29.6886 57.0488 30.75 57.0488Z" fill="#92CA62"/>
</svg>
